<?xml version="1.0" standalone="no"?><!DOCTYPE svg PUBLIC "-//W3C//DTD SVG 1.1//EN" "http://www.w3.org/Graphics/SVG/1.1/DTD/svg11.dtd"><svg t="1760250996897" class="icon" viewBox="0 0 1024 1024" version="1.1" xmlns="http://www.w3.org/2000/svg" p-id="4521" xmlns:xlink="http://www.w3.org/1999/xlink" width="200" height="200"><path d="M160 640a32 32 0 0 1 31.776 28.256L192 672v160h160a32 32 0 0 1 3.744 63.776L352 896H160a32 32 0 0 1-31.776-28.256L128 864v-192a32 32 0 0 1 32-32z m704 0a32 32 0 0 1 31.776 28.256L896 672v192l-0.224 3.744a32 32 0 0 1-28.032 28.032L864 896h-192l-3.744-0.224a32 32 0 0 1 0-63.552L672 832h160v-160l0.224-3.744A32 32 0 0 1 864 640z m-352-96c13.568 0 26.144 0.352 37.76 1.024l16.64 1.184c77.28 6.816 105.6 27.584 105.6 37.792 0 60.16-78.016 120-160 120-82.016 0-160-59.84-160-120 0-7.808 17.824-22.624 63.712-31.872l12.64-2.272C450.464 546.304 478.08 544 512 544z m144-224a48 48 0 0 1 48 48v32a48 48 0 0 1-96 0v-32a48 48 0 0 1 48-48z m-288 0a48 48 0 0 1 48 48v32a48 48 0 0 1-96 0v-32a48 48 0 0 1 48-48zM352 128a32 32 0 0 1 0 64H192v160a32 32 0 0 1-64 0V160a32 32 0 0 1 32-32h192z m512 0a32 32 0 0 1 31.776 28.256L896 160v192a32 32 0 0 1-63.776 3.744L832 352V192h-160a32 32 0 0 1-3.744-63.776L672 128h192z" fill="#1296db" p-id="4522"></path></svg>